<svg xmlns="http://www.w3.org/2000/svg" xmlns:xlink="http://www.w3.org/1999/xlink" width="500" zoomAndPan="magnify" viewBox="0 0 375 374.999991" height="500" preserveAspectRatio="xMidYMid meet" version="1.0"><defs><g/><clipPath id="ef43778e2f"><path d="M 129 138 L 246 138 L 246 212.261719 L 129 212.261719 Z M 129 138 " clip-rule="nonzero"/></clipPath><clipPath id="7d549958d1"><path d="M 134 65.597656 L 184 65.597656 L 184 104 L 134 104 Z M 134 65.597656 " clip-rule="nonzero"/></clipPath><clipPath id="b9b405d105"><path d="M 191 65.597656 L 241 65.597656 L 241 104 L 191 104 Z M 191 65.597656 " clip-rule="nonzero"/></clipPath><clipPath id="28f5fa9e68"><path d="M 160.003906 149.847656 L 219.113281 149.847656 L 219.113281 197.378906 L 160.003906 197.378906 Z M 160.003906 149.847656 " clip-rule="nonzero"/></clipPath><clipPath id="ade92664f4"><path d="M 167.894531 146 L 206.933594 146 L 206.933594 205 L 167.894531 205 Z M 167.894531 146 " clip-rule="nonzero"/></clipPath></defs><rect x="-37.5" width="450" fill="#ffffff" y="-37.499999" height="449.999989" fill-opacity="1"/><rect x="-37.5" width="450" fill="#ffffff" y="-37.499999" height="449.999989" fill-opacity="1"/><g fill="#000000" fill-opacity="1"><g transform="translate(17.371762, 278.812306)"><g><path d="M 32.734375 -30.140625 L 21.3125 -30.140625 L 21.3125 0 L 11.6875 0 L 11.6875 -30.140625 L 0.375 -30.140625 L 0.375 -37.9375 L 32.734375 -37.9375 Z M 32.734375 -30.140625 "/></g></g></g><g fill="#000000" fill-opacity="1"><g transform="translate(50.427102, 278.812306)"><g><path d="M 26.625 0 L 21 -10.65625 L 13.421875 -10.65625 L 13.421875 0 L 3.78125 0 L 3.78125 -37.875 L 20.71875 -37.875 C 25.738281 -37.875 29.617188 -36.726562 32.359375 -34.4375 C 35.097656 -32.144531 36.46875 -28.890625 36.46875 -24.671875 C 36.46875 -18.828125 34.175781 -14.769531 29.59375 -12.5 L 37.546875 0 Z M 13.421875 -18.234375 L 20.71875 -18.234375 C 22.8125 -18.234375 24.4375 -18.753906 25.59375 -19.796875 C 26.75 -20.847656 27.328125 -22.363281 27.328125 -24.34375 C 27.328125 -26.289062 26.75 -27.769531 25.59375 -28.78125 C 24.4375 -29.789062 22.8125 -30.296875 20.71875 -30.296875 L 13.421875 -30.296875 Z M 13.421875 -18.234375 "/></g></g></g><g fill="#000000" fill-opacity="1"><g transform="translate(89.595784, 278.812306)"><g><path d="M 28.953125 -6.984375 L 12.390625 -6.984375 L 9.625 0 L -0.265625 0 L 16.078125 -37.875 L 25.96875 -37.875 L 41.9375 0 L 31.65625 0 Z M 26.140625 -14.28125 L 20.71875 -28.296875 L 15.203125 -14.28125 Z M 26.140625 -14.28125 "/></g></g></g><g fill="#000000" fill-opacity="1"><g transform="translate(131.253083, 278.812306)"><g><path d="M 24.625 0 L 14.65625 0 L -0.046875 -37.875 L 10.234375 -37.875 L 19.90625 -10.015625 L 29.59375 -37.875 L 39.5 -37.875 Z M 24.625 0 "/></g></g></g><g fill="#000000" fill-opacity="1"><g transform="translate(170.69227, 278.812306)"><g><path d="M 33.4375 -30.296875 L 13.421875 -30.296875 L 13.421875 -22.78125 L 31.484375 -22.78125 L 31.484375 -15.203125 L 13.421875 -15.203125 L 13.421875 -7.578125 L 34.03125 -7.578125 L 34.03125 0 L 3.78125 0 L 3.78125 -37.875 L 33.4375 -37.875 Z M 33.4375 -30.296875 "/></g></g></g><g fill="#000000" fill-opacity="1"><g transform="translate(207.155936, 278.812306)"><g><path d="M 13.421875 -8.0625 L 29.484375 -8.0625 L 29.484375 0 L 3.78125 0 L 3.78125 -37.875 L 13.421875 -37.875 Z M 13.421875 -8.0625 "/></g></g></g><g fill="#000000" fill-opacity="1"><g transform="translate(237.452144, 278.812306)"><g><path d="M 21.75 -38.203125 C 27.632812 -38.203125 32.523438 -36.367188 36.421875 -32.703125 C 40.316406 -29.046875 42.265625 -24.476562 42.265625 -19 C 42.265625 -13.476562 40.304688 -8.859375 36.390625 -5.140625 C 32.472656 -1.421875 27.59375 0.4375 21.75 0.4375 C 15.90625 0.4375 11.035156 -1.410156 7.140625 -5.109375 C 3.242188 -8.804688 1.296875 -13.4375 1.296875 -19 C 1.296875 -24.507812 3.242188 -29.085938 7.140625 -32.734375 C 11.035156 -36.378906 15.90625 -38.203125 21.75 -38.203125 Z M 21.859375 -30.140625 C 18.898438 -30.140625 16.375 -29.066406 14.28125 -26.921875 C 12.1875 -24.773438 11.140625 -22.113281 11.140625 -18.9375 C 11.140625 -15.757812 12.195312 -13.078125 14.3125 -10.890625 C 16.425781 -8.710938 18.941406 -7.625 21.859375 -7.625 C 24.785156 -7.625 27.265625 -8.710938 29.296875 -10.890625 C 31.335938 -13.078125 32.359375 -15.757812 32.359375 -18.9375 C 32.359375 -22.113281 31.335938 -24.773438 29.296875 -26.921875 C 27.265625 -29.066406 24.785156 -30.140625 21.859375 -30.140625 Z M 21.859375 -30.140625 "/></g></g></g><g fill="#000000" fill-opacity="1"><g transform="translate(281.002967, 278.812306)"><g><path d="M 21.75 -38.203125 C 27.632812 -38.203125 32.523438 -36.367188 36.421875 -32.703125 C 40.316406 -29.046875 42.265625 -24.476562 42.265625 -19 C 42.265625 -13.476562 40.304688 -8.859375 36.390625 -5.140625 C 32.472656 -1.421875 27.59375 0.4375 21.75 0.4375 C 15.90625 0.4375 11.035156 -1.410156 7.140625 -5.109375 C 3.242188 -8.804688 1.296875 -13.4375 1.296875 -19 C 1.296875 -24.507812 3.242188 -29.085938 7.140625 -32.734375 C 11.035156 -36.378906 15.90625 -38.203125 21.75 -38.203125 Z M 21.859375 -30.140625 C 18.898438 -30.140625 16.375 -29.066406 14.28125 -26.921875 C 12.1875 -24.773438 11.140625 -22.113281 11.140625 -18.9375 C 11.140625 -15.757812 12.195312 -13.078125 14.3125 -10.890625 C 16.425781 -8.710938 18.941406 -7.625 21.859375 -7.625 C 24.785156 -7.625 27.265625 -8.710938 29.296875 -10.890625 C 31.335938 -13.078125 32.359375 -15.757812 32.359375 -18.9375 C 32.359375 -22.113281 31.335938 -24.773438 29.296875 -26.921875 C 27.265625 -29.066406 24.785156 -30.140625 21.859375 -30.140625 Z M 21.859375 -30.140625 "/></g></g></g><g fill="#000000" fill-opacity="1"><g transform="translate(324.553791, 278.812306)"><g><path d="M 32.734375 -30.140625 L 21.3125 -30.140625 L 21.3125 0 L 11.6875 0 L 11.6875 -30.140625 L 0.375 -30.140625 L 0.375 -37.9375 L 32.734375 -37.9375 Z M 32.734375 -30.140625 "/></g></g></g><g fill="#1bbc9b" fill-opacity="1"><g transform="translate(17.001159, 305.449393)"><g><path d="M 9.484375 -9.890625 L 5.796875 -9.890625 L 5.796875 0 L 3.828125 0 L 3.828125 -9.890625 L 0.15625 -9.890625 L 0.15625 -11.65625 L 9.484375 -11.65625 Z M 9.484375 -9.890625 "/></g></g></g><g fill="#1bbc9b" fill-opacity="1"><g transform="translate(26.636702, 305.449393)"><g><path d="M 11.625 0 L 9.671875 0 L 9.671875 -4.828125 L 3.5 -4.828125 L 3.5 0 L 1.53125 0 L 1.53125 -11.65625 L 3.5 -11.65625 L 3.5 -6.59375 L 9.671875 -6.59375 L 9.671875 -11.65625 L 11.625 -11.65625 Z M 11.625 0 "/></g></g></g><g fill="#1bbc9b" fill-opacity="1"><g transform="translate(39.800286, 305.449393)"><g><path d="M 9.84375 -9.890625 L 3.5 -9.890625 L 3.5 -6.734375 L 9.1875 -6.734375 L 9.1875 -4.96875 L 3.5 -4.96875 L 3.5 -1.765625 L 10.046875 -1.765625 L 10.046875 0 L 1.53125 0 L 1.53125 -11.65625 L 9.84375 -11.65625 Z M 9.84375 -9.890625 "/></g></g></g><g fill="#1bbc9b" fill-opacity="1"><g transform="translate(50.717238, 305.449393)"><g/></g></g><g fill="#1bbc9b" fill-opacity="1"><g transform="translate(55.010796, 305.449393)"><g><path d="M 7.015625 -11.65625 L 7.015625 -3.59375 C 7.015625 -2.425781 6.691406 -1.519531 6.046875 -0.875 C 5.410156 -0.238281 4.523438 0.078125 3.390625 0.078125 C 2.015625 0.078125 0.875 -0.476562 -0.03125 -1.59375 L 0.90625 -3.09375 C 1.6875 -2.238281 2.507812 -1.8125 3.375 -1.8125 C 3.90625 -1.8125 4.316406 -1.96875 4.609375 -2.28125 C 4.898438 -2.601562 5.046875 -3.0625 5.046875 -3.65625 L 5.046875 -9.890625 L 1.015625 -9.890625 L 1.015625 -11.65625 Z M 7.015625 -11.65625 "/></g></g></g><g fill="#1bbc9b" fill-opacity="1"><g transform="translate(63.315003, 305.449393)"><g><path d="M 2.34375 -10.015625 C 3.53125 -11.140625 4.992188 -11.703125 6.734375 -11.703125 C 8.484375 -11.703125 9.945312 -11.140625 11.125 -10.015625 C 12.3125 -8.890625 12.90625 -7.492188 12.90625 -5.828125 C 12.90625 -4.160156 12.3125 -2.757812 11.125 -1.625 C 9.945312 -0.488281 8.484375 0.078125 6.734375 0.078125 C 4.992188 0.078125 3.53125 -0.488281 2.34375 -1.625 C 1.15625 -2.757812 0.5625 -4.160156 0.5625 -5.828125 C 0.5625 -7.492188 1.15625 -8.890625 2.34375 -10.015625 Z M 6.75 -9.9375 C 5.601562 -9.9375 4.617188 -9.539062 3.796875 -8.75 C 2.972656 -7.957031 2.5625 -6.984375 2.5625 -5.828125 C 2.5625 -4.671875 2.972656 -3.691406 3.796875 -2.890625 C 4.628906 -2.085938 5.613281 -1.6875 6.75 -1.6875 C 7.894531 -1.6875 8.875 -2.085938 9.6875 -2.890625 C 10.5 -3.691406 10.90625 -4.671875 10.90625 -5.828125 C 10.90625 -6.984375 10.5 -7.957031 9.6875 -8.75 C 8.875 -9.539062 7.894531 -9.9375 6.75 -9.9375 Z M 6.75 -9.9375 "/></g></g></g><g fill="#1bbc9b" fill-opacity="1"><g transform="translate(76.794772, 305.449393)"><g><path d="M 6.3125 -3.875 L 6.3125 0 L 4.359375 0 L 4.359375 -3.8125 L 0.015625 -11.65625 L 2 -11.65625 L 5.328125 -5.96875 L 8.59375 -11.65625 L 10.578125 -11.65625 Z M 6.3125 -3.875 "/></g></g></g><g fill="#1bbc9b" fill-opacity="1"><g transform="translate(87.395529, 305.449393)"><g/></g></g><g fill="#1bbc9b" fill-opacity="1"><g transform="translate(91.689087, 305.449393)"><g><path d="M 2.34375 -10.015625 C 3.53125 -11.140625 4.992188 -11.703125 6.734375 -11.703125 C 8.484375 -11.703125 9.945312 -11.140625 11.125 -10.015625 C 12.3125 -8.890625 12.90625 -7.492188 12.90625 -5.828125 C 12.90625 -4.160156 12.3125 -2.757812 11.125 -1.625 C 9.945312 -0.488281 8.484375 0.078125 6.734375 0.078125 C 4.992188 0.078125 3.53125 -0.488281 2.34375 -1.625 C 1.15625 -2.757812 0.5625 -4.160156 0.5625 -5.828125 C 0.5625 -7.492188 1.15625 -8.890625 2.34375 -10.015625 Z M 6.75 -9.9375 C 5.601562 -9.9375 4.617188 -9.539062 3.796875 -8.75 C 2.972656 -7.957031 2.5625 -6.984375 2.5625 -5.828125 C 2.5625 -4.671875 2.972656 -3.691406 3.796875 -2.890625 C 4.628906 -2.085938 5.613281 -1.6875 6.75 -1.6875 C 7.894531 -1.6875 8.875 -2.085938 9.6875 -2.890625 C 10.5 -3.691406 10.90625 -4.671875 10.90625 -5.828125 C 10.90625 -6.984375 10.5 -7.957031 9.6875 -8.75 C 8.875 -9.539062 7.894531 -9.9375 6.75 -9.9375 Z M 6.75 -9.9375 "/></g></g></g><g fill="#1bbc9b" fill-opacity="1"><g transform="translate(105.168856, 305.449393)"><g><path d="M 9.328125 -9.890625 L 3.5 -9.890625 L 3.5 -6.515625 L 8.78125 -6.515625 L 8.78125 -4.78125 L 3.5 -4.78125 L 3.5 0 L 1.53125 0 L 1.53125 -11.65625 L 9.359375 -11.65625 Z M 9.328125 -9.890625 "/></g></g></g><g fill="#1bbc9b" fill-opacity="1"><g transform="translate(114.737829, 305.449393)"><g/></g></g><g fill="#1bbc9b" fill-opacity="1"><g transform="translate(119.031388, 305.449393)"><g><path d="M 9.84375 -9.890625 L 3.5 -9.890625 L 3.5 -6.734375 L 9.1875 -6.734375 L 9.1875 -4.96875 L 3.5 -4.96875 L 3.5 -1.765625 L 10.046875 -1.765625 L 10.046875 0 L 1.53125 0 L 1.53125 -11.65625 L 9.84375 -11.65625 Z M 9.84375 -9.890625 "/></g></g></g><g fill="#1bbc9b" fill-opacity="1"><g transform="translate(129.948339, 305.449393)"><g><path d="M 6.921875 -6.0625 L 11.171875 0 L 8.8125 0 L 5.671875 -4.390625 L 2.546875 0 L 0.25 0 L 4.5 -5.96875 L 0.546875 -11.65625 L 2.828125 -11.65625 L 5.671875 -7.609375 L 8.53125 -11.65625 L 10.828125 -11.65625 Z M 6.921875 -6.0625 "/></g></g></g><g fill="#1bbc9b" fill-opacity="1"><g transform="translate(141.464394, 305.449393)"><g><path d="M 1.53125 -11.65625 L 6.171875 -11.65625 C 7.640625 -11.65625 8.773438 -11.304688 9.578125 -10.609375 C 10.378906 -9.910156 10.78125 -8.929688 10.78125 -7.671875 C 10.78125 -6.347656 10.378906 -5.320312 9.578125 -4.59375 C 8.773438 -3.875 7.640625 -3.515625 6.171875 -3.515625 L 3.5 -3.515625 L 3.5 0 L 1.53125 0 Z M 3.5 -9.890625 L 3.5 -5.28125 L 6.09375 -5.28125 C 7.96875 -5.28125 8.90625 -6.0625 8.90625 -7.625 C 8.90625 -9.132812 7.96875 -9.890625 6.09375 -9.890625 Z M 3.5 -9.890625 "/></g></g></g><g fill="#1bbc9b" fill-opacity="1"><g transform="translate(152.664254, 305.449393)"><g><path d="M 3.5 -1.78125 L 8.53125 -1.78125 L 8.53125 0 L 1.53125 0 L 1.53125 -11.65625 L 3.5 -11.65625 Z M 3.5 -1.78125 "/></g></g></g><g fill="#1bbc9b" fill-opacity="1"><g transform="translate(161.550923, 305.449393)"><g><path d="M 2.34375 -10.015625 C 3.53125 -11.140625 4.992188 -11.703125 6.734375 -11.703125 C 8.484375 -11.703125 9.945312 -11.140625 11.125 -10.015625 C 12.3125 -8.890625 12.90625 -7.492188 12.90625 -5.828125 C 12.90625 -4.160156 12.3125 -2.757812 11.125 -1.625 C 9.945312 -0.488281 8.484375 0.078125 6.734375 0.078125 C 4.992188 0.078125 3.53125 -0.488281 2.34375 -1.625 C 1.15625 -2.757812 0.5625 -4.160156 0.5625 -5.828125 C 0.5625 -7.492188 1.15625 -8.890625 2.34375 -10.015625 Z M 6.75 -9.9375 C 5.601562 -9.9375 4.617188 -9.539062 3.796875 -8.75 C 2.972656 -7.957031 2.5625 -6.984375 2.5625 -5.828125 C 2.5625 -4.671875 2.972656 -3.691406 3.796875 -2.890625 C 4.628906 -2.085938 5.613281 -1.6875 6.75 -1.6875 C 7.894531 -1.6875 8.875 -2.085938 9.6875 -2.890625 C 10.5 -3.691406 10.90625 -4.671875 10.90625 -5.828125 C 10.90625 -6.984375 10.5 -7.957031 9.6875 -8.75 C 8.875 -9.539062 7.894531 -9.9375 6.75 -9.9375 Z M 6.75 -9.9375 "/></g></g></g><g fill="#1bbc9b" fill-opacity="1"><g transform="translate(175.030691, 305.449393)"><g><path d="M 8.921875 0 L 6.796875 -3.53125 C 6.679688 -3.519531 6.5 -3.515625 6.25 -3.515625 L 3.5 -3.515625 L 3.5 0 L 1.53125 0 L 1.53125 -11.65625 L 6.25 -11.65625 C 7.738281 -11.65625 8.894531 -11.304688 9.71875 -10.609375 C 10.539062 -9.910156 10.953125 -8.929688 10.953125 -7.671875 C 10.953125 -6.742188 10.742188 -5.957031 10.328125 -5.3125 C 9.910156 -4.664062 9.3125 -4.191406 8.53125 -3.890625 L 11.15625 0 Z M 3.5 -5.28125 L 6.25 -5.28125 C 8.132812 -5.28125 9.078125 -6.0625 9.078125 -7.625 C 9.078125 -9.132812 8.132812 -9.890625 6.25 -9.890625 L 3.5 -9.890625 Z M 3.5 -5.28125 "/></g></g></g><g fill="#1bbc9b" fill-opacity="1"><g transform="translate(187.062647, 305.449393)"><g><path d="M 3.5 0 L 1.53125 0 L 1.53125 -11.65625 L 3.5 -11.65625 Z M 3.5 0 "/></g></g></g><g fill="#1bbc9b" fill-opacity="1"><g transform="translate(192.088447, 305.449393)"><g><path d="M 11.625 0 L 9.703125 0 L 3.5 -8.359375 L 3.5 0 L 1.53125 0 L 1.53125 -11.65625 L 3.46875 -11.65625 L 9.703125 -3.28125 L 9.703125 -11.65625 L 11.625 -11.65625 Z M 11.625 0 "/></g></g></g><g fill="#1bbc9b" fill-opacity="1"><g transform="translate(205.268683, 305.449393)"><g><path d="M 9.5 -5.71875 L 11.21875 -5.71875 L 11.21875 -1.4375 C 10.613281 -0.976562 9.90625 -0.609375 9.09375 -0.328125 C 8.28125 -0.0546875 7.476562 0.078125 6.6875 0.078125 C 4.96875 0.078125 3.515625 -0.488281 2.328125 -1.625 C 1.148438 -2.757812 0.5625 -4.160156 0.5625 -5.828125 C 0.5625 -7.492188 1.160156 -8.890625 2.359375 -10.015625 C 3.554688 -11.140625 5.039062 -11.703125 6.8125 -11.703125 C 7.625 -11.703125 8.425781 -11.550781 9.21875 -11.25 C 10.019531 -10.957031 10.707031 -10.5625 11.28125 -10.0625 L 10.171875 -8.625 C 9.210938 -9.507812 8.09375 -9.953125 6.8125 -9.953125 C 5.625 -9.953125 4.617188 -9.550781 3.796875 -8.75 C 2.972656 -7.957031 2.5625 -6.984375 2.5625 -5.828125 C 2.5625 -4.660156 2.972656 -3.675781 3.796875 -2.875 C 4.628906 -2.082031 5.640625 -1.6875 6.828125 -1.6875 C 7.722656 -1.6875 8.613281 -1.953125 9.5 -2.484375 Z M 9.5 -5.71875 "/></g></g></g><g fill="#1bbc9b" fill-opacity="1"><g transform="translate(217.73331, 305.449393)"><g/></g></g><g fill="#1bbc9b" fill-opacity="1"><g transform="translate(222.026869, 305.449393)"><g><path d="M 9.046875 -2.625 L 3.171875 -2.625 L 2.0625 0 L 0.015625 0 L 5.15625 -11.65625 L 7.171875 -11.65625 L 12.265625 0 L 10.171875 0 Z M 8.296875 -4.375 L 6.109375 -9.546875 L 3.90625 -4.375 Z M 8.296875 -4.375 "/></g></g></g><g fill="#1bbc9b" fill-opacity="1"><g transform="translate(234.30844, 305.449393)"><g><path d="M 11.625 0 L 9.703125 0 L 3.5 -8.359375 L 3.5 0 L 1.53125 0 L 1.53125 -11.65625 L 3.46875 -11.65625 L 9.703125 -3.28125 L 9.703125 -11.65625 L 11.625 -11.65625 Z M 11.625 0 "/></g></g></g><g fill="#1bbc9b" fill-opacity="1"><g transform="translate(247.488657, 305.449393)"><g><path d="M 1.53125 -11.65625 L 6.3125 -11.65625 C 8.050781 -11.65625 9.488281 -11.101562 10.625 -10 C 11.757812 -8.90625 12.328125 -7.515625 12.328125 -5.828125 C 12.328125 -4.140625 11.753906 -2.742188 10.609375 -1.640625 C 9.472656 -0.546875 8.019531 0 6.25 0 L 1.53125 0 Z M 3.5 -9.890625 L 3.5 -1.765625 L 6.359375 -1.765625 C 7.503906 -1.765625 8.453125 -2.144531 9.203125 -2.90625 C 9.960938 -3.664062 10.34375 -4.632812 10.34375 -5.8125 C 10.34375 -6.988281 9.953125 -7.960938 9.171875 -8.734375 C 8.390625 -9.503906 7.425781 -9.890625 6.28125 -9.890625 Z M 3.5 -9.890625 "/></g></g></g><g fill="#1bbc9b" fill-opacity="1"><g transform="translate(260.385965, 305.449393)"><g/></g></g><g fill="#1bbc9b" fill-opacity="1"><g transform="translate(264.679523, 305.449393)"><g><path d="M 11.4375 -11.65625 L 11.4375 -4.828125 C 11.4375 -3.304688 10.984375 -2.109375 10.078125 -1.234375 C 9.179688 -0.359375 7.945312 0.078125 6.375 0.078125 C 4.800781 0.078125 3.5625 -0.359375 2.65625 -1.234375 C 1.75 -2.109375 1.296875 -3.304688 1.296875 -4.828125 L 1.296875 -11.65625 L 3.265625 -11.65625 L 3.265625 -4.828125 C 3.265625 -3.847656 3.539062 -3.078125 4.09375 -2.515625 C 4.65625 -1.960938 5.421875 -1.6875 6.390625 -1.6875 C 7.347656 -1.6875 8.097656 -1.960938 8.640625 -2.515625 C 9.191406 -3.066406 9.46875 -3.835938 9.46875 -4.828125 L 9.46875 -11.65625 Z M 11.4375 -11.65625 "/></g></g></g><g fill="#1bbc9b" fill-opacity="1"><g transform="translate(277.393775, 305.449393)"><g><path d="M 11.625 0 L 9.703125 0 L 3.5 -8.359375 L 3.5 0 L 1.53125 0 L 1.53125 -11.65625 L 3.46875 -11.65625 L 9.703125 -3.28125 L 9.703125 -11.65625 L 11.625 -11.65625 Z M 11.625 0 "/></g></g></g><g fill="#1bbc9b" fill-opacity="1"><g transform="translate(290.573992, 305.449393)"><g><path d="M 1.53125 -11.65625 L 6.59375 -11.65625 C 7.800781 -11.65625 8.753906 -11.394531 9.453125 -10.875 C 10.148438 -10.351562 10.5 -9.640625 10.5 -8.734375 C 10.5 -8.078125 10.316406 -7.519531 9.953125 -7.0625 C 9.585938 -6.601562 9.085938 -6.296875 8.453125 -6.140625 C 9.234375 -6.003906 9.84375 -5.675781 10.28125 -5.15625 C 10.726562 -4.632812 10.953125 -3.976562 10.953125 -3.1875 C 10.953125 -2.195312 10.570312 -1.414062 9.8125 -0.84375 C 9.0625 -0.28125 8.023438 0 6.703125 0 L 1.53125 0 Z M 3.5 -9.90625 L 3.5 -6.828125 L 6.484375 -6.828125 C 7.109375 -6.828125 7.597656 -6.960938 7.953125 -7.234375 C 8.304688 -7.515625 8.484375 -7.898438 8.484375 -8.390625 C 8.484375 -8.878906 8.304688 -9.253906 7.953125 -9.515625 C 7.609375 -9.773438 7.117188 -9.90625 6.484375 -9.90625 Z M 3.5 -5.09375 L 3.5 -1.75 L 6.484375 -1.75 C 7.265625 -1.75 7.867188 -1.894531 8.296875 -2.1875 C 8.722656 -2.476562 8.9375 -2.894531 8.9375 -3.4375 C 8.9375 -3.945312 8.71875 -4.347656 8.28125 -4.640625 C 7.851562 -4.941406 7.253906 -5.09375 6.484375 -5.09375 Z M 3.5 -5.09375 "/></g></g></g><g fill="#1bbc9b" fill-opacity="1"><g transform="translate(302.323029, 305.449393)"><g><path d="M 2.34375 -10.015625 C 3.53125 -11.140625 4.992188 -11.703125 6.734375 -11.703125 C 8.484375 -11.703125 9.945312 -11.140625 11.125 -10.015625 C 12.3125 -8.890625 12.90625 -7.492188 12.90625 -5.828125 C 12.90625 -4.160156 12.3125 -2.757812 11.125 -1.625 C 9.945312 -0.488281 8.484375 0.078125 6.734375 0.078125 C 4.992188 0.078125 3.53125 -0.488281 2.34375 -1.625 C 1.15625 -2.757812 0.5625 -4.160156 0.5625 -5.828125 C 0.5625 -7.492188 1.15625 -8.890625 2.34375 -10.015625 Z M 6.75 -9.9375 C 5.601562 -9.9375 4.617188 -9.539062 3.796875 -8.75 C 2.972656 -7.957031 2.5625 -6.984375 2.5625 -5.828125 C 2.5625 -4.671875 2.972656 -3.691406 3.796875 -2.890625 C 4.628906 -2.085938 5.613281 -1.6875 6.75 -1.6875 C 7.894531 -1.6875 8.875 -2.085938 9.6875 -2.890625 C 10.5 -3.691406 10.90625 -4.671875 10.90625 -5.828125 C 10.90625 -6.984375 10.5 -7.957031 9.6875 -8.75 C 8.875 -9.539062 7.894531 -9.9375 6.75 -9.9375 Z M 6.75 -9.9375 "/></g></g></g><g fill="#1bbc9b" fill-opacity="1"><g transform="translate(315.802788, 305.449393)"><g><path d="M 6.921875 -6.0625 L 11.171875 0 L 8.8125 0 L 5.671875 -4.390625 L 2.546875 0 L 0.25 0 L 4.5 -5.96875 L 0.546875 -11.65625 L 2.828125 -11.65625 L 5.671875 -7.609375 L 8.53125 -11.65625 L 10.828125 -11.65625 Z M 6.921875 -6.0625 "/></g></g></g><g fill="#1bbc9b" fill-opacity="1"><g transform="translate(327.318834, 305.449393)"><g><path d="M 3.5 0 L 1.53125 0 L 1.53125 -11.65625 L 3.5 -11.65625 Z M 3.5 0 "/></g></g></g><g fill="#1bbc9b" fill-opacity="1"><g transform="translate(332.344634, 305.449393)"><g><path d="M 11.625 0 L 9.703125 0 L 3.5 -8.359375 L 3.5 0 L 1.53125 0 L 1.53125 -11.65625 L 3.46875 -11.65625 L 9.703125 -3.28125 L 9.703125 -11.65625 L 11.625 -11.65625 Z M 11.625 0 "/></g></g></g><g fill="#1bbc9b" fill-opacity="1"><g transform="translate(345.524869, 305.449393)"><g><path d="M 9.5 -5.71875 L 11.21875 -5.71875 L 11.21875 -1.4375 C 10.613281 -0.976562 9.90625 -0.609375 9.09375 -0.328125 C 8.28125 -0.0546875 7.476562 0.078125 6.6875 0.078125 C 4.96875 0.078125 3.515625 -0.488281 2.328125 -1.625 C 1.148438 -2.757812 0.5625 -4.160156 0.5625 -5.828125 C 0.5625 -7.492188 1.160156 -8.890625 2.359375 -10.015625 C 3.554688 -11.140625 5.039062 -11.703125 6.8125 -11.703125 C 7.625 -11.703125 8.425781 -11.550781 9.21875 -11.25 C 10.019531 -10.957031 10.707031 -10.5625 11.28125 -10.0625 L 10.171875 -8.625 C 9.210938 -9.507812 8.09375 -9.953125 6.8125 -9.953125 C 5.625 -9.953125 4.617188 -9.550781 3.796875 -8.75 C 2.972656 -7.957031 2.5625 -6.984375 2.5625 -5.828125 C 2.5625 -4.660156 2.972656 -3.675781 3.796875 -2.875 C 4.628906 -2.082031 5.640625 -1.6875 6.828125 -1.6875 C 7.722656 -1.6875 8.613281 -1.953125 9.5 -2.484375 Z M 9.5 -5.71875 "/></g></g></g><g clip-path="url(#ef43778e2f)"><path fill="#1bbc9b" d="M 201.804688 182.933594 C 199.472656 185.382812 197.0625 187.824219 194.734375 190.183594 C 193.53125 191.402344 192.332031 192.621094 191.136719 193.839844 C 190.191406 194.808594 188.855469 195.363281 187.476562 195.363281 C 186.089844 195.363281 184.757812 194.808594 183.8125 193.839844 L 176.140625 185.996094 C 175.816406 185.664062 175.488281 185.332031 175.15625 185 C 172.824219 182.65625 170.414062 180.230469 168.984375 176.960938 C 167.738281 174.109375 167.28125 171.554688 167.582031 169.148438 C 167.84375 167.066406 168.367188 165.421875 169.238281 163.964844 C 170.367188 162.074219 172.269531 160.257812 174.324219 159.117188 C 176.113281 158.121094 178.09375 157.59375 180.050781 157.59375 C 181.308594 157.59375 182.527344 157.808594 183.667969 158.234375 C 185 158.730469 186.261719 159.414062 187.445312 160.277344 C 188.050781 159.832031 188.667969 159.441406 189.296875 159.105469 C 191.175781 158.117188 193.113281 157.613281 195.0625 157.613281 C 195.796875 157.613281 196.539062 157.6875 197.265625 157.832031 C 200.722656 158.515625 203.277344 160.871094 204.816406 162.726562 C 204.921875 162.851562 205.027344 162.992188 205.125 163.136719 C 206.472656 164.996094 207.246094 167.210938 207.425781 169.71875 C 207.738281 174.097656 205.742188 178.792969 201.804688 182.933594 Z M 129.878906 138.957031 L 129.878906 208.695312 C 129.878906 210.722656 131.523438 212.363281 133.546875 212.363281 L 241.402344 212.363281 C 243.425781 212.363281 245.070312 210.722656 245.070312 208.695312 L 245.070312 138.957031 L 129.878906 138.957031 " fill-opacity="1" fill-rule="nonzero"/></g><path fill="#1bbc9b" d="M 248.933594 110.441406 C 248.933594 108.617188 247.453125 107.136719 245.628906 107.136719 L 129.320312 107.136719 C 127.496094 107.136719 126.015625 108.617188 126.015625 110.441406 L 126.015625 134.433594 L 248.933594 134.433594 L 248.933594 110.441406 " fill-opacity="1" fill-rule="nonzero"/><path fill="#1bbc9b" d="M 185.265625 103.84375 C 182.894531 103.84375 180.960938 102.105469 180.960938 99.96875 C 180.960938 97.832031 182.894531 96.09375 185.265625 96.09375 L 189.683594 96.09375 C 192.054688 96.09375 193.988281 97.832031 193.988281 99.96875 C 193.988281 102.105469 192.054688 103.84375 189.683594 103.84375 L 185.265625 103.84375 " fill-opacity="1" fill-rule="nonzero"/><g clip-path="url(#7d549958d1)"><path fill="#1bbc9b" d="M 183.265625 92.945312 C 181.871094 90.328125 180.117188 87.429688 177.96875 84.515625 C 168.828125 72.140625 156.917969 65.597656 143.519531 65.597656 C 141.535156 65.597656 139.484375 65.742188 137.433594 66.027344 C 135.847656 66.246094 134.664062 67.601562 134.664062 69.203125 L 134.664062 92.515625 C 134.664062 93.414062 135.042969 94.273438 135.707031 94.878906 C 136.371094 95.488281 137.257812 95.789062 138.15625 95.710938 C 138.171875 95.710938 139.710938 95.578125 142.097656 95.578125 C 148.023438 95.578125 161.746094 96.429688 167.945312 103.84375 L 178.746094 103.84375 C 177.992188 102.722656 177.554688 101.394531 177.554688 99.96875 C 177.554688 96.609375 179.980469 93.78125 183.265625 92.945312 " fill-opacity="1" fill-rule="nonzero"/></g><g clip-path="url(#b9b405d105)"><path fill="#1bbc9b" d="M 237.515625 66.027344 C 235.460938 65.742188 233.414062 65.597656 231.429688 65.597656 C 218.03125 65.597656 206.121094 72.140625 196.980469 84.515625 C 194.832031 87.429688 193.078125 90.328125 191.683594 92.945312 C 194.96875 93.78125 197.394531 96.609375 197.394531 99.96875 C 197.394531 101.394531 196.957031 102.722656 196.203125 103.84375 L 207.003906 103.84375 C 213.203125 96.429688 226.925781 95.578125 232.851562 95.578125 C 235.238281 95.578125 236.777344 95.710938 236.792969 95.710938 C 237.6875 95.789062 238.578125 95.488281 239.242188 94.878906 C 239.90625 94.273438 240.285156 93.414062 240.285156 92.515625 L 240.285156 69.203125 C 240.285156 67.601562 239.101562 66.246094 237.515625 66.027344 " fill-opacity="1" fill-rule="nonzero"/></g><g clip-path="url(#28f5fa9e68)"><path fill="#1bbc9b" d="M 160.003906 149.847656 L 219.046875 149.847656 L 219.046875 197.378906 L 160.003906 197.378906 Z M 160.003906 149.847656 " fill-opacity="1" fill-rule="nonzero"/></g><g clip-path="url(#ade92664f4)"><path fill="#ffffff" d="M 187.5 146.136719 C 176.667969 146.136719 167.882812 154.921875 167.882812 165.757812 C 167.882812 176.589844 187.5 204.984375 187.5 204.984375 C 187.5 204.984375 207.113281 176.589844 207.113281 165.757812 C 207.113281 154.921875 198.332031 146.136719 187.5 146.136719 Z M 187.5 175.046875 C 181.796875 175.046875 177.175781 170.425781 177.175781 164.71875 C 177.175781 159.023438 181.796875 154.402344 187.5 154.402344 C 193.199219 154.402344 197.816406 159.023438 197.816406 164.71875 C 197.816406 170.425781 193.199219 175.046875 187.5 175.046875 Z M 187.5 175.046875 " fill-opacity="1" fill-rule="nonzero"/></g></svg>